<svg xmlns="http://www.w3.org/2000/svg" viewBox="0 0 1440 180" preserveAspectRatio="none">
<path fill="#ffffff" fill-opacity="0.2" d="M-360 124 C-90 124 90 4 360 4 C630 4 810 124 1080 124 C1350 124 1530 4 1800 4 L1800 180 L-360 180 Z"/>
<path fill="#ffffff" fill-opacity="0.42" d="M-360 142 C-90 142 90 22 360 22 C630 22 810 142 1080 142 C1350 142 1530 22 1800 22 L1800 180 L-360 180 Z"/>
<path fill="#ffffff" d="M-360 160 C-90 160 90 40 360 40 C630 40 810 160 1080 160 C1350 160 1530 40 1800 40 L1800 180 L-360 180 Z"/>
</svg>
